<?xml version="1.0" encoding="utf-8"?>
<!-- Generator: Adobe Illustrator 18.1.1, SVG Export Plug-In . SVG Version: 6.00 Build 0)  -->
<svg version="1.1" xmlns="http://www.w3.org/2000/svg" xmlns:xlink="http://www.w3.org/1999/xlink" x="0px" y="0px"
	 viewBox="0 0 432 288" enable-background="new 0 0 432 288" xml:space="preserve">
<g id="Layer_1">
	<path d="M420.1,179.7h-19.5l0,0c-18.3,0-33.1-14.8-33.1-33.1c0-18.3,14.8-33.1,33.1-33.1h19.5v11.3h-19.5
		c-12.1,0-21.8,9.8-21.8,21.8c0,12.1,9.8,21.8,21.8,21.8h19.5V179.7z"/>
	<path d="M328.4,124.8v-11.3h-25.8c-10.7,0-19.4,8.7-19.4,19.4c0,10.7,8.7,19.4,19.4,19.4h12.2c4.5,0,8.1,3.6,8.1,8.1
		c0,4.5-3.6,8.1-8.1,8.1h-27.8v11.3h27.8l0,0c6.9,0,13.3-3.7,16.8-9.7c3.5-6,3.5-13.4,0-19.4c-3.5-6-9.9-9.7-16.8-9.7h-12.2
		c-4.5,0-8.1-3.6-8.1-8.1c0-4.5,3.6-8.1,8.1-8.1H328.4z"/>
	<path d="M271.9,179.7v-38c0-15.6-12.6-28.2-28.2-28.2c-15.6,0-28.2,12.6-28.2,28.2v38h11.3v-38c0-9.4,7.6-17,17-17
		c9.4,0,17,7.6,17,17v38H271.9z"/>
	<rect x="191.8" y="94.1" width="11.3" height="11.3"/>
	<rect x="191.8" y="113.5" width="11.3" height="66.2"/>
	<polygon points="120.9,96.3 109.6,96.3 109.6,115.7 98.4,115.7 98.4,126.9 109.6,126.9 109.6,179.7 120.9,179.7 120.9,126.9 
		132.2,126.9 132.2,115.7 120.9,115.7 	"/>
	<rect x="11.9" y="113.5" width="11.3" height="66.2"/>
	<rect x="11.9" y="94.1" width="11.3" height="11.3"/>
	<path d="M94.7,179.7v-38c0-15.6-12.6-28.2-28.2-28.2c-15.6,0-28.2,12.6-28.2,28.2v38h11.3v-38c0-9.4,7.6-17,17-17
		c9.4,0,17,7.6,17,17v38H94.7z"/>
	<rect x="344.9" y="94.1" width="11.3" height="11.3"/>
	<rect x="344.9" y="113.5" width="11.3" height="66.2"/>
	<path d="M174.7,124.8c-9.4,0-17,7.6-17,17v38h-11.3v-38v-28.2h11.3v5.7l0,0c4.7-3.6,10.6-5.7,17-5.7h5.8v11.3H174.7z"/>
</g>
<g id="Layer_2" display="none">
	<rect display="inline" width="432" height="288"/>
	<path display="inline" fill="#FFFFFF" d="M420.1,179.7h-19.5l0,0c-18.3,0-33.1-14.8-33.1-33.1c0-18.3,14.8-33.1,33.1-33.1h19.5
		v11.3h-19.5c-12.1,0-21.8,9.8-21.8,21.8c0,12.1,9.8,21.8,21.8,21.8h19.5V179.7z"/>
	<path display="inline" fill="#FFFFFF" d="M328.4,124.8v-11.3h-25.8c-10.7,0-19.4,8.7-19.4,19.4c0,10.7,8.7,19.4,19.4,19.4h12.2
		c4.5,0,8.1,3.6,8.1,8.1c0,4.5-3.6,8.1-8.1,8.1h-27.8v11.3h27.8l0,0c6.9,0,13.3-3.7,16.8-9.7c3.5-6,3.5-13.4,0-19.4
		c-3.5-6-9.9-9.7-16.8-9.7h-12.2c-4.5,0-8.1-3.6-8.1-8.1c0-4.5,3.6-8.1,8.1-8.1H328.4z"/>
	<path display="inline" fill="#FFFFFF" d="M271.9,179.7v-38c0-15.6-12.6-28.2-28.2-28.2c-15.6,0-28.2,12.6-28.2,28.2v38h11.3v-38
		c0-9.4,7.6-17,17-17c9.4,0,17,7.6,17,17v38H271.9z"/>
	<rect x="191.8" y="94.1" display="inline" fill="#FFFFFF" width="11.3" height="11.3"/>
	<rect x="191.8" y="113.5" display="inline" fill="#FFFFFF" width="11.3" height="66.2"/>
	<polygon display="inline" fill="#FFFFFF" points="120.9,96.3 109.6,96.3 109.6,115.7 98.4,115.7 98.4,126.9 109.6,126.9 
		109.6,179.7 120.9,179.7 120.9,126.9 132.2,126.9 132.2,115.7 120.9,115.7 	"/>
	<rect x="11.9" y="113.5" display="inline" fill="#FFFFFF" width="11.3" height="66.2"/>
	<rect x="11.9" y="94.1" display="inline" fill="#FFFFFF" width="11.3" height="11.3"/>
	<path display="inline" fill="#FFFFFF" d="M94.7,179.7v-38c0-15.6-12.6-28.2-28.2-28.2c-15.6,0-28.2,12.6-28.2,28.2v38h11.3v-38
		c0-9.4,7.6-17,17-17c9.4,0,17,7.6,17,17v38H94.7z"/>
	<rect x="344.9" y="94.1" display="inline" fill="#FFFFFF" width="11.3" height="11.3"/>
	<rect x="344.9" y="113.5" display="inline" fill="#FFFFFF" width="11.3" height="66.2"/>
	<path display="inline" fill="#FFFFFF" d="M174.7,124.8c-9.4,0-17,7.6-17,17v38h-11.3v-38v-28.2h11.3v5.7l0,0
		c4.7-3.6,10.6-5.7,17-5.7h5.8v11.3H174.7z"/>
</g>
</svg>
